<svg width="804" height="162" viewBox="0 0 804 162" fill="none" xmlns="http://www.w3.org/2000/svg">
<path d="M78.6624 1.25399C91.1364 1.56199 106.228 12.65 106.228 40.37V130.152C106.228 130.768 105.92 130.922 105.612 130.306L29.3824 0.483995H0.276367V1.25399C4.12637 1.25399 9.97837 1.56199 13.0584 4.33399V78.562C13.0584 112.596 9.51637 131.23 0.276367 131.23V132H44.7824V131.23C18.2944 131.23 13.8284 106.436 13.8284 65.626V4.94999C15.3684 6.644 16.7544 8.8 18.4484 12.342L88.6724 132H106.998V63.778C106.998 32.054 107.614 1.25399 120.242 1.25399V0.483995H78.6624V1.25399ZM189.439 90.728C189.439 65.472 170.035 42.988 142.931 50.226C126.299 54.692 113.671 71.17 113.671 91.19C113.671 114.598 131.997 133.54 154.173 133.54C170.035 133.54 185.435 124.608 188.823 108.13H188.053C180.353 139.084 135.231 141.702 128.609 90.728H189.439ZM144.779 50.534C162.797 45.76 175.425 62.854 173.577 89.958H128.455C126.299 71.94 130.919 54.23 144.779 50.534ZM176.233 131.23V132H208.419V131.23C198.871 131.23 198.101 118.602 203.183 107.976L210.575 94.732L224.435 121.22C227.361 127.072 225.205 130.768 220.585 131.384H219.199V132H255.697V131.384H253.849C250.307 130.768 244.147 126.456 240.451 118.756L222.433 84.568C242.145 50.996 250.923 49.61 254.927 49.61H256.005V48.84H219.353V49.61C233.213 49.61 236.139 60.082 221.971 83.798L209.497 59.774C207.033 53.46 208.265 49.61 213.501 49.61H214.425V48.84H177.773V49.61H179.467C183.625 49.61 188.245 50.996 192.249 59.774L210.113 93.962L207.495 98.582C194.405 123.222 181.469 131.23 177.465 131.23H176.233ZM299.938 115.214C278.224 141.856 280.688 119.372 280.688 106.898V49.61H291.622V48.84H280.688V24.2L265.288 30.822V48.84H257.896V49.61H265.288V106.128C265.288 130.768 273.758 148.17 300.4 115.83L299.938 115.214ZM385.344 0.483995H350.386V1.25399C355.93 1.40799 359.934 2.33199 360.088 11.418V121.22C360.088 130.46 357.162 131.23 350.386 131.23V132H385.19V131.23C379.03 131.23 375.488 130.306 375.488 121.22V76.714H405.672C455.876 76.714 455.722 0.483995 405.672 0.483995H385.344ZM375.488 75.944V11.418C375.642 2.02399 379.8 1.25399 385.19 1.25399H405.98C434.778 1.25399 435.548 75.944 405.98 75.944H375.488ZM468.58 48.84L443.478 59.62V60.39C445.48 59.774 448.714 58.08 450.562 58.08C453.026 58.08 453.18 61.16 453.18 62.854V120.912C453.18 130.306 449.33 131.23 443.478 131.23V132H478.282V131.23C472.122 131.23 468.58 129.998 468.58 120.912V64.548C473.046 50.226 500.304 43.142 494.914 70.4H495.222L503.23 51.766C495.376 44.836 478.282 50.996 468.58 59.312V48.84ZM545.566 131.846C579.6 123.992 561.736 43.296 528.01 50.38C494.592 57.618 511.378 139.854 545.566 131.846ZM528.01 49.61C551.11 44.836 572.362 59.466 577.29 82.412C582.064 104.742 567.896 127.996 545.566 132.616C522.466 137.544 501.214 122.606 496.286 99.66C491.512 77.022 504.756 54.538 528.01 49.61ZM580.716 32.054C580.716 26.356 585.336 21.89 590.88 21.89C596.578 21.89 601.044 26.356 601.044 32.054C601.044 37.598 596.578 42.218 590.88 42.218C585.336 42.218 580.716 37.598 580.716 32.054ZM598.734 48.84L573.632 59.312V60.082C579.022 58.542 583.18 55 583.334 61.314V132C583.334 166.342 581.024 169.422 560.08 177.738V178.816C578.252 170.962 598.734 166.342 598.734 137.39V48.84ZM680.615 90.728C680.615 65.472 661.211 42.988 634.107 50.226C617.475 54.692 604.847 71.17 604.847 91.19C604.847 114.598 623.173 133.54 645.349 133.54C661.211 133.54 676.611 124.608 679.999 108.13H679.229C671.529 139.084 626.407 141.702 619.785 90.728H680.615ZM635.955 50.534C653.973 45.76 666.601 62.854 664.753 89.958H619.631C617.475 71.94 622.095 54.23 635.955 50.534ZM684.403 91.19C684.403 67.012 701.805 48.532 726.445 48.84C730.449 48.84 734.299 49.302 737.995 50.226C744.001 51.612 752.933 52.998 755.551 47.3H756.475L759.555 74.404H758.785C753.857 54.384 733.837 45.914 715.357 51.15C697.801 56.078 697.185 74.558 699.187 88.88C706.579 142.78 750.777 138.622 758.785 108.13H759.555C756.167 124.608 740.767 133.54 724.905 133.54C702.729 133.54 684.403 114.598 684.403 91.19ZM803.445 115.214C781.731 141.856 784.195 119.372 784.195 106.898V49.61H795.129V48.84H784.195V24.2L768.795 30.822V48.84H761.403V49.61H768.795V106.128C768.795 130.768 777.265 148.17 803.907 115.83L803.445 115.214Z" fill="white"/>
<path d="M78.6624 1.25399H77.6624V2.22961L78.6377 2.25369L78.6624 1.25399ZM105.612 130.306L106.507 129.859L106.492 129.829L106.475 129.8L105.612 130.306ZM29.3824 0.483995L30.2447 -0.0223543L29.9548 -0.516005H29.3824V0.483995ZM0.276367 0.483995V-0.516005H-0.723633V0.483995H0.276367ZM0.276367 1.25399H-0.723633V2.25399H0.276367V1.25399ZM13.0584 4.33399H14.0584V3.88863L13.7273 3.5907L13.0584 4.33399ZM0.276367 131.23V130.23H-0.723633V131.23H0.276367ZM0.276367 132H-0.723633V133H0.276367V132ZM44.7824 132V133H45.7824V132H44.7824ZM44.7824 131.23H45.7824V130.23H44.7824V131.23ZM13.8284 4.94999L14.5683 4.27732L12.8284 2.36338V4.94999H13.8284ZM18.4484 12.342L17.5462 12.7735L17.5645 12.8116L17.5859 12.8481L18.4484 12.342ZM88.6724 132L87.8099 132.506L88.0997 133H88.6724V132ZM106.998 132V133H107.998V132H106.998ZM120.242 1.25399V2.25399H121.242V1.25399H120.242ZM120.242 0.483995H121.242V-0.516005H120.242V0.483995ZM78.6624 0.483995V-0.516005H77.6624V0.483995H78.6624ZM78.6377 2.25369C84.5891 2.40064 91.2127 5.12088 96.3611 11.18C101.507 17.2364 105.228 26.6916 105.228 40.37H107.228C107.228 26.3284 103.404 16.3796 97.8852 9.88498C92.3691 3.39311 85.2097 0.415349 78.6871 0.254299L78.6377 2.25369ZM105.228 40.37V130.152H107.228V40.37H105.228ZM105.228 130.152C105.228 130.235 105.216 130.233 105.237 130.177C105.247 130.15 105.355 129.864 105.72 129.742C106.134 129.604 106.43 129.817 106.493 129.873C106.561 129.931 106.555 129.955 106.507 129.859L104.718 130.753C104.824 130.965 104.972 131.201 105.184 131.384C105.392 131.565 105.822 131.816 106.352 131.64C106.833 131.479 107.037 131.078 107.114 130.868C107.202 130.629 107.228 130.377 107.228 130.152H105.228ZM106.475 129.8L30.2447 -0.0223543L28.52 0.990344L104.75 130.812L106.475 129.8ZM29.3824 -0.516005H0.276367V1.484H29.3824V-0.516005ZM-0.723633 0.483995V1.25399H1.27637V0.483995H-0.723633ZM0.276367 2.25399C2.18221 2.25399 4.53686 2.33102 6.77723 2.73836C9.03834 3.14947 11.0537 3.87515 12.3894 5.07729L13.7273 3.5907C11.983 2.02083 9.53239 1.20651 7.135 0.770623C4.71688 0.330964 2.22052 0.253994 0.276367 0.253994V2.25399ZM12.0584 4.33399V78.562H14.0584V4.33399H12.0584ZM12.0584 78.562C12.0584 95.5666 11.1715 108.639 9.15759 117.436C8.14926 121.84 6.87731 125.083 5.35859 127.205C3.86329 129.293 2.1843 130.23 0.276367 130.23V132.23C2.98844 132.23 5.21719 130.838 6.98477 128.369C8.72893 125.933 10.075 122.39 11.1071 117.882C13.1742 108.853 14.0584 95.5914 14.0584 78.562H12.0584ZM-0.723633 131.23V132H1.27637V131.23H-0.723633ZM0.276367 133H44.7824V131H0.276367V133ZM45.7824 132V131.23H43.7824V132H45.7824ZM44.7824 130.23C38.3211 130.23 33.2915 128.72 29.3527 125.905C25.4089 123.085 22.4683 118.892 20.3034 113.367C15.9537 102.266 14.8284 86.045 14.8284 65.626H12.8284C12.8284 86.017 13.936 102.598 18.4413 114.097C20.704 119.871 23.8463 124.427 28.1896 127.532C32.538 130.64 37.9997 132.23 44.7824 132.23V130.23ZM14.8284 65.626V4.94999H12.8284V65.626H14.8284ZM13.0884 5.62266C14.5382 7.21737 15.8747 9.27846 17.5462 12.7735L19.3505 11.9105C17.634 8.32154 16.1986 6.07063 14.5683 4.27732L13.0884 5.62266ZM17.5859 12.8481L87.8099 132.506L89.5348 131.494L19.3108 11.8359L17.5859 12.8481ZM88.6724 133H106.998V131H88.6724V133ZM107.998 132V63.778H105.998V132H107.998ZM107.998 63.778C107.998 47.8992 108.154 32.3453 109.874 20.7664C110.735 14.9684 111.976 10.2661 113.725 7.03867C115.462 3.83262 117.592 2.25399 120.242 2.25399V0.253994C116.578 0.253994 113.896 2.52537 111.966 6.0857C110.048 9.62463 108.767 14.6051 107.896 20.4726C106.15 32.2247 105.998 47.9328 105.998 63.778H107.998ZM121.242 1.25399V0.483995H119.242V1.25399H121.242ZM120.242 -0.516005H78.6624V1.484H120.242V-0.516005ZM77.6624 0.483995V1.25399H79.6624V0.483995H77.6624ZM189.439 90.728V91.728H190.439V90.728H189.439ZM142.931 50.226L142.673 49.2599L142.672 49.2602L142.931 50.226ZM188.823 108.13L189.802 108.331L190.049 107.13H188.823V108.13ZM188.053 108.13V107.13H187.271L187.082 107.889L188.053 108.13ZM128.609 90.728V89.728H127.471L127.617 90.8568L128.609 90.728ZM144.779 50.534L144.523 49.5673L144.521 49.5678L144.779 50.534ZM173.577 89.958V90.958H174.511L174.575 90.026L173.577 89.958ZM128.455 89.958L127.462 90.0768L127.567 90.958H128.455V89.958ZM190.439 90.728C190.439 77.8563 185.496 65.6501 177.04 57.5688C168.556 49.4619 156.572 45.5481 142.673 49.2599L143.189 51.1921C156.394 47.6659 167.664 51.3751 175.658 59.0147C183.679 66.6799 188.439 78.3437 188.439 90.728H190.439ZM142.672 49.2602C125.564 53.8539 112.671 70.7588 112.671 91.19H114.671C114.671 71.5812 127.034 55.5301 143.19 51.1918L142.672 49.2602ZM112.671 91.19C112.671 115.111 131.406 134.54 154.173 134.54V132.54C132.587 132.54 114.671 114.085 114.671 91.19H112.671ZM154.173 134.54C170.36 134.54 186.292 125.406 189.802 108.331L187.843 107.929C184.578 123.81 169.709 132.54 154.173 132.54V134.54ZM188.823 107.13H188.053V109.13H188.823V107.13ZM187.082 107.889C183.348 122.901 170.597 130.933 158.067 129.162C145.586 127.397 132.875 115.804 129.601 90.5992L127.617 90.8568C130.965 116.626 144.126 129.211 157.787 131.142C171.398 133.067 185.058 124.313 189.023 108.371L187.082 107.889ZM128.609 91.728H189.439V89.728H128.609V91.728ZM145.035 51.5006C153.627 49.2241 160.874 52.1338 165.821 58.8829C170.814 65.6942 173.493 76.4812 172.579 89.89L174.575 90.026C175.508 76.3308 172.798 65.0188 167.434 57.7006C162.025 50.3202 153.949 47.0699 144.523 49.5673L145.035 51.5006ZM173.577 88.958H128.455V90.958H173.577V88.958ZM129.448 89.8392C128.382 80.9358 129.001 72.1717 131.55 65.2194C134.094 58.2801 138.515 53.2394 145.037 51.5002L144.521 49.5678C137.183 51.5246 132.364 57.1869 129.672 64.5311C126.985 71.8623 126.371 80.9622 127.462 90.0768L129.448 89.8392ZM176.233 131.23V130.23H175.233V131.23H176.233ZM176.233 132H175.233V133H176.233V132ZM208.419 132V133H209.419V132H208.419ZM208.419 131.23H209.419V130.23H208.419V131.23ZM203.183 107.976L202.31 107.489L202.295 107.516L202.281 107.545L203.183 107.976ZM210.575 94.732L211.461 94.2684L210.604 92.6293L209.702 94.2446L210.575 94.732ZM224.435 121.22L225.33 120.773L225.326 120.765L225.321 120.756L224.435 121.22ZM220.585 131.384V132.384H220.652L220.718 132.375L220.585 131.384ZM219.199 131.384V130.384H218.199V131.384H219.199ZM219.199 132H218.199V133H219.199V132ZM255.697 132V133H256.697V132H255.697ZM255.697 131.384H256.697V130.384H255.697V131.384ZM253.849 131.384L253.678 132.369L253.763 132.384H253.849V131.384ZM240.451 118.756L241.353 118.323L241.345 118.306L241.336 118.29L240.451 118.756ZM222.433 84.568L221.571 84.0617L221.289 84.5417L221.549 85.0342L222.433 84.568ZM256.005 49.61V50.61H257.005V49.61H256.005ZM256.005 48.84H257.005V47.84H256.005V48.84ZM219.353 48.84V47.84H218.353V48.84H219.353ZM219.353 49.61H218.353V50.61H219.353V49.61ZM221.971 83.798L221.084 84.2588L221.91 85.8503L222.83 84.3109L221.971 83.798ZM209.497 59.774L208.566 60.1375L208.585 60.1874L208.61 60.2348L209.497 59.774ZM214.425 49.61V50.61H215.425V49.61H214.425ZM214.425 48.84H215.425V47.84H214.425V48.84ZM177.773 48.84V47.84H176.773V48.84H177.773ZM177.773 49.61H176.773V50.61H177.773V49.61ZM192.249 59.774L191.34 60.189L191.351 60.2134L191.363 60.2371L192.249 59.774ZM210.113 93.962L210.983 94.455L211.252 93.9814L211 93.4989L210.113 93.962ZM207.495 98.582L206.625 98.089L206.619 98.1008L206.612 98.1128L207.495 98.582ZM175.233 131.23V132H177.233V131.23H175.233ZM176.233 133H208.419V131H176.233V133ZM209.419 132V131.23H207.419V132H209.419ZM208.419 130.23C206.272 130.23 204.699 129.529 203.569 128.388C202.421 127.226 201.654 125.529 201.301 123.423C200.594 119.194 201.606 113.591 204.086 108.407L202.281 107.545C199.679 112.987 198.535 119.011 199.329 123.753C199.727 126.132 200.625 128.255 202.148 129.794C203.689 131.353 205.793 132.23 208.419 132.23V130.23ZM204.057 108.463L211.449 95.2194L209.702 94.2446L202.31 107.489L204.057 108.463ZM209.689 95.1956L223.549 121.684L225.321 120.756L211.461 94.2684L209.689 95.1956ZM223.541 121.667C224.935 124.456 225.009 126.514 224.423 127.868C223.851 129.186 222.529 130.116 220.453 130.393L220.718 132.375C223.262 132.036 225.327 130.81 226.258 128.663C227.173 126.552 226.861 123.836 225.33 120.773L223.541 121.667ZM220.585 130.384H219.199V132.384H220.585V130.384ZM218.199 131.384V132H220.199V131.384H218.199ZM219.199 133H255.697V131H219.199V133ZM256.697 132V131.384H254.697V132H256.697ZM255.697 130.384H253.849V132.384H255.697V130.384ZM254.021 130.399C252.492 130.133 250.229 129.02 247.863 126.971C245.518 124.939 243.139 122.045 241.353 118.323L239.55 119.189C241.459 123.167 244.009 126.279 246.553 128.482C249.077 130.668 251.664 132.019 253.678 132.369L254.021 130.399ZM241.336 118.29L223.318 84.1018L221.549 85.0342L239.567 119.222L241.336 118.29ZM223.296 85.0743C233.132 68.3219 240.191 59.6891 245.232 55.25C247.745 53.0368 249.734 51.8863 251.293 51.2839C252.838 50.687 254.007 50.61 254.927 50.61V48.61C253.846 48.61 252.416 48.7062 250.573 49.4183C248.744 50.1249 246.556 51.4192 243.91 53.749C238.633 58.3959 231.447 67.2421 221.571 84.0617L223.296 85.0743ZM254.927 50.61H256.005V48.61H254.927V50.61ZM257.005 49.61V48.84H255.005V49.61H257.005ZM256.005 47.84H219.353V49.84H256.005V47.84ZM218.353 48.84V49.61H220.353V48.84H218.353ZM219.353 50.61C222.711 50.61 225.268 51.2472 227.042 52.4455C228.777 53.6174 229.865 55.3941 230.181 57.9337C230.501 60.5128 230.02 63.88 228.544 68.1224C227.072 72.3544 224.633 77.3922 221.113 83.2851L222.83 84.3109C226.393 78.3458 228.902 73.1811 230.433 68.7795C231.96 64.3882 232.538 60.6907 232.165 57.6873C231.788 54.6444 230.431 52.3208 228.162 50.7881C225.932 49.2818 222.926 48.61 219.353 48.61V50.61ZM222.859 83.3372L210.385 59.3132L208.61 60.2348L221.084 84.2588L222.859 83.3372ZM210.429 59.4105C209.22 56.3128 209.028 54.0684 209.549 52.6742C209.796 52.0119 210.21 51.521 210.812 51.1808C211.432 50.8304 212.307 50.61 213.501 50.61V48.61C212.077 48.61 210.835 48.8708 209.828 49.4396C208.804 50.0186 208.082 50.8848 207.675 51.9742C206.887 54.0836 207.311 56.9212 208.566 60.1375L210.429 59.4105ZM213.501 50.61H214.425V48.61H213.501V50.61ZM215.425 49.61V48.84H213.425V49.61H215.425ZM214.425 47.84H177.773V49.84H214.425V47.84ZM176.773 48.84V49.61H178.773V48.84H176.773ZM177.773 50.61H179.467V48.61H177.773V50.61ZM179.467 50.61C181.426 50.61 183.406 50.9342 185.363 52.2334C187.335 53.5419 189.387 55.9083 191.34 60.189L193.159 59.359C191.108 54.8617 188.848 52.1461 186.469 50.5671C184.076 48.9788 181.667 48.61 179.467 48.61V50.61ZM191.363 60.2371L209.227 94.4251L211 93.4989L193.136 59.3109L191.363 60.2371ZM209.243 93.469L206.625 98.089L208.365 99.075L210.983 94.455L209.243 93.469ZM206.612 98.1128C200.109 110.355 193.665 118.425 188.386 123.42C185.745 125.918 183.407 127.638 181.508 128.726C179.575 129.835 178.201 130.23 177.465 130.23V132.23C178.731 132.23 180.476 131.624 182.503 130.461C184.566 129.278 187.03 127.456 189.76 124.872C195.223 119.703 201.792 111.449 208.379 99.0512L206.612 98.1128ZM177.465 130.23H176.233V132.23H177.465V130.23ZM299.938 115.214L300.738 114.614L299.97 113.591L299.162 114.582L299.938 115.214ZM280.688 49.61V48.61H279.688V49.61H280.688ZM291.622 49.61V50.61H292.622V49.61H291.622ZM291.622 48.84H292.622V47.84H291.622V48.84ZM280.688 48.84H279.688V49.84H280.688V48.84ZM280.688 24.2H281.688V22.6815L280.292 23.2813L280.688 24.2ZM265.288 30.822L264.892 29.9033L264.288 30.1635V30.822H265.288ZM265.288 48.84V49.84H266.288V48.84H265.288ZM257.896 48.84V47.84H256.896V48.84H257.896ZM257.896 49.61H256.896V50.61H257.896V49.61ZM265.288 49.61H266.288V48.61H265.288V49.61ZM300.4 115.83L301.171 116.466L301.671 115.859L301.2 115.23L300.4 115.83ZM299.162 114.582C293.74 121.236 289.934 124.678 287.314 126.018C286.017 126.681 285.141 126.763 284.554 126.611C283.99 126.466 283.488 126.053 283.048 125.246C282.601 124.426 282.269 123.284 282.04 121.875C281.812 120.477 281.695 118.876 281.641 117.175C281.533 113.742 281.688 110.084 281.688 106.898H279.688C279.688 109.949 279.534 113.78 279.642 117.238C279.697 118.982 279.819 120.678 280.066 122.196C280.311 123.704 280.69 125.098 281.292 126.203C281.901 127.321 282.787 128.222 284.055 128.548C285.299 128.868 286.698 128.579 288.224 127.799C291.249 126.252 295.278 122.513 300.713 115.846L299.162 114.582ZM281.688 106.898V49.61H279.688V106.898H281.688ZM280.688 50.61H291.622V48.61H280.688V50.61ZM292.622 49.61V48.84H290.622V49.61H292.622ZM291.622 47.84H280.688V49.84H291.622V47.84ZM281.688 48.84V24.2H279.688V48.84H281.688ZM280.292 23.2813L264.892 29.9033L265.683 31.7407L281.083 25.1187L280.292 23.2813ZM264.288 30.822V48.84H266.288V30.822H264.288ZM265.288 47.84H257.896V49.84H265.288V47.84ZM256.896 48.84V49.61H258.896V48.84H256.896ZM257.896 50.61H265.288V48.61H257.896V50.61ZM264.288 49.61V106.128H266.288V49.61H264.288ZM264.288 106.128C264.288 112.334 264.82 118.136 266.06 122.842C267.291 127.509 269.27 131.296 272.325 133.196C275.471 135.152 279.44 134.928 284.161 132.296C288.862 129.675 294.481 124.587 301.171 116.466L299.628 115.194C292.997 123.243 287.566 128.108 283.187 130.549C278.827 132.98 275.682 132.929 273.381 131.497C270.987 130.009 269.184 126.846 267.994 122.332C266.814 117.855 266.288 112.242 266.288 106.128H264.288ZM301.2 115.23L300.738 114.614L299.138 115.814L299.6 116.43L301.2 115.23ZM350.386 0.483995V-0.516005H349.386V0.483995H350.386ZM350.386 1.25399H349.386V2.2266L350.358 2.25361L350.386 1.25399ZM360.088 11.418H361.088V11.4095L361.088 11.401L360.088 11.418ZM350.386 131.23V130.23H349.386V131.23H350.386ZM350.386 132H349.386V133H350.386V132ZM385.19 132V133H386.19V132H385.19ZM385.19 131.23H386.19V130.23H385.19V131.23ZM375.488 76.714V75.714H374.488V76.714H375.488ZM375.488 75.944H374.488V76.944H375.488V75.944ZM375.488 11.418L374.488 11.4016L374.488 11.4098V11.418H375.488ZM385.344 -0.516005H350.386V1.484H385.344V-0.516005ZM349.386 0.483995V1.25399H351.386V0.483995H349.386ZM350.358 2.25361C353.15 2.33116 355.208 2.61441 356.629 3.76394C357.998 4.87164 359.013 7.00065 359.088 11.4349L361.088 11.401C361.009 6.74933 359.944 3.87334 357.887 2.20904C355.881 0.586572 353.166 0.33083 350.414 0.25438L350.358 2.25361ZM359.088 11.418V121.22H361.088V11.418H359.088ZM359.088 121.22C359.088 125.825 358.336 127.898 357.128 128.929C356.522 129.448 355.71 129.782 354.587 129.981C353.453 130.181 352.075 130.23 350.386 130.23V132.23C352.084 132.23 353.614 132.183 354.934 131.95C356.265 131.715 357.455 131.28 358.427 130.451C360.376 128.787 361.088 125.855 361.088 121.22H359.088ZM349.386 131.23V132H351.386V131.23H349.386ZM350.386 133H385.19V131H350.386V133ZM386.19 132V131.23H384.19V132H386.19ZM385.19 130.23C382.073 130.23 380.009 129.97 378.665 128.861C377.372 127.793 376.488 125.694 376.488 121.22H374.488C374.488 125.832 375.375 128.738 377.392 130.403C379.36 132.028 382.147 132.23 385.19 132.23V130.23ZM376.488 121.22V76.714H374.488V121.22H376.488ZM375.488 77.714H405.672V75.714H375.488V77.714ZM405.672 77.714C418.498 77.714 428.181 72.8345 434.642 65.4622C441.086 58.1093 444.277 48.3361 444.267 38.598C444.257 28.8599 441.047 19.0875 434.598 11.7355C428.133 4.36415 418.461 -0.516005 405.672 -0.516005V1.484C417.908 1.484 427.024 6.1326 433.095 13.0543C439.183 19.9954 442.258 29.2806 442.267 38.6C442.276 47.9194 439.22 57.2037 433.138 64.1439C427.072 71.0647 417.947 75.714 405.672 75.714V77.714ZM405.672 -0.516005H385.344V1.484H405.672V-0.516005ZM376.488 75.944V11.418H374.488V75.944H376.488ZM376.488 11.4344C376.563 6.84277 377.617 4.68493 378.995 3.59835C380.424 2.47108 382.471 2.25399 385.19 2.25399V0.253994C382.518 0.253994 379.792 0.421912 377.756 2.02814C375.668 3.67506 374.567 6.59922 374.488 11.4016L376.488 11.4344ZM385.19 2.25399H405.98V0.253994H385.19V2.25399ZM405.98 2.25399C412.665 2.25399 417.836 6.56666 421.401 13.3875C424.967 20.2102 426.819 29.3781 426.867 38.6042C426.915 47.8309 425.156 56.995 421.616 63.8129C418.081 70.6213 412.865 74.944 405.98 74.944V76.944C413.878 76.944 419.655 71.9305 423.391 64.7345C427.122 57.548 428.916 48.0396 428.867 38.5938C428.818 29.1474 426.927 19.6428 423.173 12.4611C419.418 5.27757 413.694 0.253994 405.98 0.253994V2.25399ZM405.98 74.944H375.488V76.944H405.98V74.944ZM468.58 48.84H469.58V47.3222L468.185 47.9211L468.58 48.84ZM443.478 59.62L443.083 58.7011L442.478 58.9611V59.62H443.478ZM443.478 60.39H442.478V61.744L443.772 61.3458L443.478 60.39ZM443.478 131.23V130.23H442.478V131.23H443.478ZM443.478 132H442.478V133H443.478V132ZM478.282 132V133H479.282V132H478.282ZM478.282 131.23H479.282V130.23H478.282V131.23ZM468.58 64.548L467.625 64.2503L467.58 64.3957V64.548H468.58ZM494.914 70.4L493.933 70.206L493.696 71.4H494.914V70.4ZM495.222 70.4V71.4H495.88L496.14 70.7948L495.222 70.4ZM503.23 51.766L504.148 52.1608L504.434 51.4954L503.891 51.0162L503.23 51.766ZM468.58 59.312H467.58V61.4862L469.23 60.0713L468.58 59.312ZM468.185 47.9211L443.083 58.7011L443.872 60.5388L468.974 49.7588L468.185 47.9211ZM442.478 59.62V60.39H444.478V59.62H442.478ZM443.772 61.3458C444.816 61.0243 446.221 60.4088 447.439 59.9363C448.756 59.425 449.855 59.08 450.562 59.08V57.08C449.42 57.08 447.978 57.582 446.716 58.0717C445.354 58.6002 444.141 59.1397 443.183 59.4342L443.772 61.3458ZM450.562 59.08C450.949 59.08 451.183 59.1934 451.352 59.3409C451.541 59.5059 451.713 59.7731 451.852 60.1646C452.135 60.9688 452.18 62.0073 452.18 62.854H454.18C454.18 62.0067 454.147 60.6582 453.738 59.4989C453.529 58.9086 453.201 58.3 452.668 57.8345C452.115 57.3516 451.406 57.08 450.562 57.08V59.08ZM452.18 62.854V120.912H454.18V62.854H452.18ZM452.18 120.912C452.18 125.526 451.224 127.713 449.885 128.824C448.5 129.973 446.429 130.23 443.478 130.23V132.23C446.378 132.23 449.158 132.025 451.162 130.363C453.21 128.664 454.18 125.692 454.18 120.912H452.18ZM442.478 131.23V132H444.478V131.23H442.478ZM443.478 133H478.282V131H443.478V133ZM479.282 132V131.23H477.282V132H479.282ZM478.282 130.23C475.194 130.23 473.125 129.899 471.778 128.725C470.462 127.577 469.58 125.38 469.58 120.912H467.58C467.58 125.53 468.469 128.492 470.463 130.232C472.427 131.945 475.209 132.23 478.282 132.23V130.23ZM469.58 120.912V64.548H467.58V120.912H469.58ZM469.534 64.8457C470.573 61.513 472.959 58.5507 475.924 56.3961C478.892 54.2394 482.357 52.9527 485.466 52.8812C488.547 52.8104 491.217 53.9225 492.856 56.5076C494.528 59.1438 495.257 63.5101 493.933 70.206L495.895 70.594C497.265 63.6609 496.609 58.691 494.545 55.4367C492.45 52.1313 489.037 50.7986 485.42 50.8818C481.829 50.9643 477.979 52.4304 474.748 54.7782C471.515 57.1281 468.819 60.422 467.625 64.2503L469.534 64.8457ZM494.914 71.4H495.222V69.4H494.914V71.4ZM496.14 70.7948L504.148 52.1608L502.311 51.3712L494.303 70.0052L496.14 70.7948ZM503.891 51.0162C499.577 47.2097 492.904 47.1169 486.341 48.8551C479.723 50.6082 472.89 54.3002 467.929 58.5527L469.23 60.0713C473.971 56.0077 480.536 52.4618 486.854 50.7884C493.227 49.1001 499.028 49.3923 502.568 52.5158L503.891 51.0162ZM469.58 59.312V48.84H467.58V59.312H469.58ZM545.566 131.846L545.341 130.872L545.338 130.872L545.566 131.846ZM528.01 50.38L527.805 49.4013L527.799 49.4027L528.01 50.38ZM528.01 49.61L527.808 48.6307L527.803 48.6317L528.01 49.61ZM577.29 82.412L578.268 82.2029L578.268 82.202L577.29 82.412ZM545.566 132.616L545.364 131.637L545.358 131.638L545.566 132.616ZM496.286 99.66L495.308 99.8663L495.309 99.87L496.286 99.66ZM545.791 132.82C554.756 130.752 560.229 123.879 562.881 115.096C565.528 106.332 565.415 95.5497 563.175 85.2979C560.936 75.046 556.545 65.2078 550.519 58.3556C544.481 51.4908 536.7 47.5329 527.805 49.4014L528.216 51.3586C536.183 49.6851 543.283 53.1577 549.017 59.6765C554.761 66.2078 559.033 75.7063 561.221 85.7246C563.41 95.7431 563.489 106.165 560.967 114.518C558.45 122.853 553.394 129.013 545.341 130.872L545.791 132.82ZM527.799 49.4027C518.97 51.3149 513.546 58.1844 510.89 67.0003C508.238 75.8041 508.287 86.6885 510.457 97.0356C512.628 107.381 516.945 117.31 522.948 124.172C528.967 131.051 536.779 134.931 545.794 132.82L545.338 130.872C537.26 132.765 530.152 129.368 524.453 122.855C518.738 116.323 514.537 106.742 512.415 96.6249C510.293 86.5092 510.274 75.978 512.805 67.5772C515.332 59.1883 520.342 53.0641 528.222 51.3573L527.799 49.4027ZM528.213 50.5893C550.749 45.9319 571.494 60.1865 576.313 82.622L578.268 82.202C573.23 58.7455 551.472 43.7401 527.808 48.6307L528.213 50.5893ZM576.312 82.6211C580.978 104.445 567.114 127.137 545.364 131.637L545.769 133.595C568.678 128.855 583.15 105.039 578.268 82.2029L576.312 82.6211ZM545.358 131.638C522.837 136.442 502.085 121.898 497.264 99.45L495.309 99.87C500.344 123.314 522.095 138.646 545.775 133.594L545.358 131.638ZM497.265 99.4537C492.596 77.3145 505.544 55.3933 528.218 50.5883L527.803 48.6317C503.969 53.6827 490.429 76.7295 495.308 99.8663L497.265 99.4537ZM598.734 48.84H599.734V47.3393L598.349 47.9171L598.734 48.84ZM573.632 59.312L573.247 58.3891L572.632 58.6456V59.312H573.632ZM573.632 60.082H572.632V61.4077L573.906 61.0435L573.632 60.082ZM583.334 61.314H584.334V61.3018L584.333 61.2896L583.334 61.314ZM560.08 177.738L559.711 176.809L559.08 177.059V177.738H560.08ZM560.08 178.816H559.08V180.338L560.476 179.734L560.08 178.816ZM581.716 32.054C581.716 26.9181 585.878 22.89 590.88 22.89V20.89C584.793 20.89 579.716 25.7939 579.716 32.054H581.716ZM590.88 22.89C596.025 22.89 600.044 26.9083 600.044 32.054H602.044C602.044 25.8037 597.13 20.89 590.88 20.89V22.89ZM600.044 32.054C600.044 37.0556 596.015 41.218 590.88 41.218V43.218C597.14 43.218 602.044 38.1404 602.044 32.054H600.044ZM590.88 41.218C585.888 41.218 581.716 37.0457 581.716 32.054H579.716C579.716 38.1503 584.783 43.218 590.88 43.218V41.218ZM598.349 47.9171L573.247 58.3891L574.017 60.2349L599.119 49.7629L598.349 47.9171ZM572.632 59.312V60.082H574.632V59.312H572.632ZM573.906 61.0435C575.309 60.6428 576.628 60.1126 577.764 59.6682C578.939 59.2087 579.867 58.8631 580.611 58.7391C581.341 58.6175 581.62 58.7524 581.779 58.9231C582.011 59.1718 582.297 59.8096 582.334 61.3384L584.333 61.2896C584.294 59.6614 584.002 58.3742 583.242 57.5594C582.41 56.6665 581.284 56.5993 580.282 56.7664C579.293 56.9312 578.161 57.3652 577.035 57.8056C575.871 58.2611 574.649 58.7512 573.357 59.1205L573.906 61.0435ZM582.334 61.314V132H584.334V61.314H582.334ZM582.334 132C582.334 140.585 582.189 147.17 581.651 152.362C581.113 157.555 580.188 161.275 578.675 164.165C575.676 169.891 570.236 172.629 559.711 176.809L560.449 178.667C570.867 174.531 577.054 171.571 580.446 165.093C582.129 161.88 583.091 157.872 583.64 152.568C584.19 147.264 584.334 140.586 584.334 132H582.334ZM559.08 177.738V178.816H561.08V177.738H559.08ZM560.476 179.734C562.735 178.758 565.031 177.831 567.334 176.895C569.633 175.961 571.938 175.017 574.192 174.015C578.698 172.011 583.046 169.754 586.835 166.804C594.482 160.849 599.734 152.159 599.734 137.39H597.734C597.734 151.573 592.744 159.669 585.607 165.226C582.004 168.031 577.825 170.211 573.379 172.187C571.158 173.175 568.881 174.107 566.581 175.042C564.286 175.975 561.967 176.911 559.683 177.898L560.476 179.734ZM599.734 137.39V48.84H597.734V137.39H599.734ZM680.615 90.728V91.728H681.615V90.728H680.615ZM634.107 50.226L633.849 49.2599L633.847 49.2602L634.107 50.226ZM679.999 108.13L680.978 108.331L681.225 107.13H679.999V108.13ZM679.229 108.13V107.13H678.447L678.258 107.889L679.229 108.13ZM619.785 90.728V89.728H618.646L618.793 90.8568L619.785 90.728ZM635.955 50.534L635.699 49.5673L635.697 49.5678L635.955 50.534ZM664.753 89.958V90.958H665.687L665.75 90.026L664.753 89.958ZM619.631 89.958L618.638 90.0768L618.743 90.958H619.631V89.958ZM681.615 90.728C681.615 77.8563 676.672 65.6501 668.216 57.5688C659.732 49.4619 647.748 45.5481 633.849 49.2599L634.365 51.1921C647.569 47.6659 658.839 51.3751 666.834 59.0147C674.855 66.6799 679.615 78.3437 679.615 90.728H681.615ZM633.847 49.2602C616.74 53.8539 603.847 70.7588 603.847 91.19H605.847C605.847 71.5812 618.21 55.5301 634.366 51.1918L633.847 49.2602ZM603.847 91.19C603.847 115.111 622.582 134.54 645.349 134.54V132.54C623.763 132.54 605.847 114.085 605.847 91.19H603.847ZM645.349 134.54C661.536 134.54 677.467 125.406 680.978 108.331L679.019 107.929C675.754 123.81 660.885 132.54 645.349 132.54V134.54ZM679.999 107.13H679.229V109.13H679.999V107.13ZM678.258 107.889C674.524 122.901 661.773 130.933 649.242 129.162C636.761 127.397 624.051 115.804 620.776 90.5992L618.793 90.8568C622.141 116.626 635.302 129.211 648.962 131.142C662.573 133.067 676.234 124.313 680.199 108.371L678.258 107.889ZM619.785 91.728H680.615V89.728H619.785V91.728ZM636.211 51.5006C644.803 49.2241 652.05 52.1338 656.997 58.8829C661.989 65.6942 664.669 76.4812 663.755 89.89L665.75 90.026C666.684 76.3308 663.974 65.0188 658.61 57.7006C653.2 50.3202 645.124 47.0699 635.699 49.5673L636.211 51.5006ZM664.753 88.958H619.631V90.958H664.753V88.958ZM620.624 89.8392C619.558 80.9358 620.177 72.1717 622.726 65.2194C625.269 58.2801 629.691 53.2394 636.212 51.5002L635.697 49.5678C628.359 51.5246 623.54 57.1869 620.848 64.5311C618.16 71.8623 617.547 80.9622 618.638 90.0768L620.624 89.8392ZM726.445 48.84L726.433 49.84H726.445V48.84ZM737.995 50.226L737.753 51.1961L737.762 51.1983L737.77 51.2004L737.995 50.226ZM755.551 47.3V46.3H754.91L754.643 46.8825L755.551 47.3ZM756.475 47.3L757.469 47.1871L757.368 46.3H756.475V47.3ZM759.555 74.404V75.404H760.675L760.549 74.2911L759.555 74.404ZM758.785 74.404L757.814 74.643L758.002 75.404H758.785V74.404ZM715.357 51.15L715.628 52.1128L715.63 52.1121L715.357 51.15ZM699.187 88.88L700.178 88.7441L700.178 88.7416L699.187 88.88ZM758.785 108.13V107.13H758.014L757.818 107.876L758.785 108.13ZM759.555 108.13L760.535 108.331L760.782 107.13H759.555V108.13ZM685.403 91.19C685.403 67.5352 702.383 49.5393 726.433 49.8399L726.458 47.8401C701.227 47.5247 683.403 66.4888 683.403 91.19H685.403ZM726.445 49.84C730.372 49.84 734.14 50.293 737.753 51.1961L738.238 49.2559C734.459 48.311 730.527 47.84 726.445 47.84V49.84ZM737.77 51.2004C740.786 51.8963 744.639 52.6191 748.102 52.4178C751.549 52.2174 754.919 51.0718 756.46 47.7175L754.643 46.8825C753.566 49.2262 751.161 50.2366 747.986 50.4212C744.827 50.6049 741.21 49.9417 738.22 49.2516L737.77 51.2004ZM755.551 48.3H756.475V46.3H755.551V48.3ZM755.482 47.4129L758.562 74.5169L760.549 74.2911L757.469 47.1871L755.482 47.4129ZM759.555 73.404H758.785V75.404H759.555V73.404ZM759.756 74.165C754.665 53.4817 733.989 44.8316 715.085 50.1879L715.63 52.1121C733.685 46.9964 753.05 55.2863 757.814 74.643L759.756 74.165ZM715.087 50.1872C705.925 52.759 701.159 58.9089 698.98 66.2061C696.82 73.4398 697.19 81.8117 698.197 89.0184L700.178 88.7416C699.183 81.6263 698.86 73.5972 700.896 66.7784C702.914 60.0231 707.234 54.4689 715.628 52.1128L715.087 50.1872ZM698.197 89.0159C701.926 116.208 715.025 129.166 728.611 131.142C742.149 133.11 755.635 124.062 759.753 108.384L757.818 107.876C753.928 122.69 741.311 130.967 728.899 129.162C716.537 127.365 703.841 115.452 700.178 88.7441L698.197 89.0159ZM758.785 109.13H759.555V107.13H758.785V109.13ZM758.576 107.929C755.311 123.81 740.442 132.54 724.905 132.54V134.54C741.093 134.54 757.024 125.406 760.535 108.331L758.576 107.929ZM724.905 132.54C703.32 132.54 685.403 114.085 685.403 91.19H683.403C683.403 115.111 702.139 134.54 724.905 134.54V132.54ZM803.445 115.214L804.245 114.614L803.478 113.591L802.67 114.582L803.445 115.214ZM784.195 49.61V48.61H783.195V49.61H784.195ZM795.129 49.61V50.61H796.129V49.61H795.129ZM795.129 48.84H796.129V47.84H795.129V48.84ZM784.195 48.84H783.195V49.84H784.195V48.84ZM784.195 24.2H785.195V22.6815L783.8 23.2813L784.195 24.2ZM768.795 30.822L768.4 29.9033L767.795 30.1635V30.822H768.795ZM768.795 48.84V49.84H769.795V48.84H768.795ZM761.403 48.84V47.84H760.403V48.84H761.403ZM761.403 49.61H760.403V50.61H761.403V49.61ZM768.795 49.61H769.795V48.61H768.795V49.61ZM803.907 115.83L804.679 116.466L805.179 115.859L804.707 115.23L803.907 115.83ZM802.67 114.582C797.247 121.236 793.442 124.678 790.822 126.018C789.525 126.681 788.649 126.763 788.062 126.611C787.498 126.466 786.996 126.053 786.556 125.246C786.109 124.426 785.777 123.284 785.548 121.875C785.32 120.477 785.203 118.876 785.149 117.175C785.041 113.742 785.195 110.084 785.195 106.898H783.195C783.195 109.949 783.041 113.78 783.15 117.238C783.205 118.982 783.327 120.678 783.574 122.196C783.819 123.704 784.197 125.098 784.8 126.203C785.409 127.321 786.295 128.222 787.563 128.548C788.807 128.868 790.206 128.579 791.732 127.799C794.757 126.252 798.786 122.513 804.22 115.846L802.67 114.582ZM785.195 106.898V49.61H783.195V106.898H785.195ZM784.195 50.61H795.129V48.61H784.195V50.61ZM796.129 49.61V48.84H794.129V49.61H796.129ZM795.129 47.84H784.195V49.84H795.129V47.84ZM785.195 48.84V24.2H783.195V48.84H785.195ZM783.8 23.2813L768.4 29.9033L769.19 31.7407L784.59 25.1187L783.8 23.2813ZM767.795 30.822V48.84H769.795V30.822H767.795ZM768.795 47.84H761.403V49.84H768.795V47.84ZM760.403 48.84V49.61H762.403V48.84H760.403ZM761.403 50.61H768.795V48.61H761.403V50.61ZM767.795 49.61V106.128H769.795V49.61H767.795ZM767.795 106.128C767.795 112.334 768.328 118.136 769.568 122.842C770.799 127.509 772.778 131.296 775.832 133.196C778.979 135.152 782.947 134.928 787.668 132.296C792.37 129.675 797.989 124.587 804.679 116.466L803.135 115.194C796.504 123.243 791.074 128.108 786.695 130.549C782.334 132.98 779.19 132.929 776.889 131.497C774.495 130.009 772.692 126.846 771.502 122.332C770.322 117.855 769.795 112.242 769.795 106.128H767.795ZM804.707 115.23L804.245 114.614L802.645 115.814L803.107 116.43L804.707 115.23Z" fill="white"/>
</svg>
