<svg width="747" height="219" viewBox="0 0 747 219" fill="none" xmlns="http://www.w3.org/2000/svg">
<path d="M140.046 134.06C128.826 183.12 103.086 193.02 77.1257 193.9H49.4057C40.3857 193.9 36.2057 192.14 36.2057 179.16V101.28H74.4857C100.006 103.26 105.946 112.28 106.606 143.08H107.706L107.266 100.84L107.046 58.6H105.946C105.946 89.84 98.4657 100.18 60.1857 100.18H36.2057V22.74C36.4257 9.31999 42.3657 8.21999 50.0657 8.21999H82.1857C110.126 8.21999 125.746 34.84 133.446 68.94H134.546L120.686 7.11999H0.345703V8.21999C8.0457 8.21999 13.9857 9.31999 14.2057 22.74V179.16C14.2057 192.36 10.0257 193.9 0.345703 193.9V195H127.286L141.146 134.06H140.046ZM247.844 0.519986L211.984 15.26V16.36C225.624 10.86 225.624 11.96 225.844 23.18V79.5C215.944 75.98 204.944 74.88 193.724 77.3C160.504 84.34 141.584 116.46 148.404 148.8C155.444 181.58 185.804 202.04 213.744 196.1C218.584 195.22 222.544 193.46 225.844 191.7V195H261.704V193.9C252.904 193.9 247.844 192.14 247.844 179.16V0.519986ZM215.284 193.68C169.084 198.3 145.544 89.18 198.124 77.96C207.364 75.98 217.264 77.52 225.844 81.92V190.38C222.984 191.92 219.464 193.24 215.284 193.68ZM270.421 52.22C270.421 44.08 277.021 37.7 284.941 37.7C293.081 37.7 299.461 44.08 299.461 52.22C299.461 60.14 293.081 66.74 284.941 66.74C277.021 66.74 270.421 60.14 270.421 52.22ZM260.521 195V193.9C269.321 193.9 274.381 192.14 274.381 179.16V98.86C274.161 87.64 274.161 86.54 260.521 92.04V90.94L296.381 76.2V179.16C296.381 192.14 301.441 193.9 310.241 193.9V195H260.521ZM363.98 171.02C332.96 209.08 336.48 176.96 336.48 159.14V77.3H352.1V76.2H336.48V41L314.48 50.46V76.2H303.92V77.3H314.48V158.04C314.48 193.24 326.58 218.1 364.64 171.9L363.98 171.02ZM425.913 194.78C474.533 183.56 449.013 68.28 400.833 78.4C353.093 88.74 377.073 206.22 425.913 194.78ZM400.833 77.3C433.833 70.48 464.193 91.38 471.233 124.16C478.053 156.06 457.813 189.28 425.913 195.88C392.913 202.92 362.553 181.58 355.513 148.8C348.693 116.46 367.613 84.34 400.833 77.3ZM502.202 76.2L466.342 91.6V92.7C469.202 91.82 473.822 89.4 476.462 89.4C479.982 89.4 480.202 93.8 480.202 96.22V179.16C480.202 192.58 474.702 193.9 466.342 193.9V195H516.062V193.9C507.262 193.9 502.202 192.14 502.202 179.16V98.64C508.582 78.18 547.522 68.06 539.822 107H540.262L551.702 80.38C540.482 70.48 516.062 79.28 502.202 91.16V76.2ZM561.535 52.22C561.535 44.08 568.135 37.7 576.055 37.7C584.195 37.7 590.575 44.08 590.575 52.22C590.575 60.14 584.195 66.74 576.055 66.74C568.135 66.74 561.535 60.14 561.535 52.22ZM551.635 195V193.9C560.435 193.9 565.495 192.14 565.495 179.16V98.86C565.275 87.64 565.275 86.54 551.635 92.04V90.94L587.495 76.2V179.16C587.495 192.14 592.555 193.9 601.355 193.9V195H551.635ZM703.144 167.06C694.784 191.7 694.344 183.34 694.344 166.4V113.82C694.124 61.02 613.604 67.18 606.784 110.52L631.864 123.06C599.964 71.14 671.244 65.2 671.904 100.62C671.464 109.42 657.164 120.2 636.924 128.34C580.384 151 595.344 202.26 641.764 196.98C660.024 194.78 667.284 185.76 671.464 174.98C672.124 209.08 694.564 201.82 704.244 167.06H703.144ZM653.204 192.58C622.184 202.26 607.444 141.54 636.044 130.1C671.904 115.8 672.344 104.36 672.344 103.48V160.02C672.344 178.5 664.204 189.06 653.204 192.58ZM732.299 179.16V0.519986L696.439 15.26V16.36C710.079 10.86 710.079 11.96 710.299 23.18V179.16C710.299 192.14 705.239 193.9 696.439 193.9V195H746.159V193.9C737.359 193.9 732.299 192.14 732.299 179.16Z" fill="#CCC"/>
<path d="M140.046 134.06V133.06H139.249L139.071 133.837L140.046 134.06ZM77.1257 193.9V194.9H77.1426L77.1596 194.899L77.1257 193.9ZM36.2057 101.28V100.28H35.2057V101.28H36.2057ZM74.4857 101.28L74.563 100.283L74.5244 100.28H74.4857V101.28ZM106.606 143.08L105.606 143.101L105.627 144.08H106.606V143.08ZM107.706 143.08V144.08H108.716L108.706 143.07L107.706 143.08ZM107.266 100.84L106.266 100.845L106.266 100.85L107.266 100.84ZM107.046 58.6L108.046 58.5948L108.04 57.6H107.046V58.6ZM105.946 58.6V57.6H104.946V58.6H105.946ZM36.2057 100.18H35.2057V101.18H36.2057V100.18ZM36.2057 22.74L35.2058 22.7236L35.2057 22.7318V22.74H36.2057ZM133.446 68.94L132.47 69.1603L132.646 69.94H133.446V68.94ZM134.546 68.94V69.94H135.795L135.521 68.7212L134.546 68.94ZM120.686 7.11999L121.661 6.90122L121.486 6.11999H120.686V7.11999ZM0.345703 7.11999V6.11999H-0.654297V7.11999H0.345703ZM0.345703 8.21999H-0.654297V9.21999H0.345703V8.21999ZM14.2057 22.74H15.2057V22.7318L15.2056 22.7236L14.2057 22.74ZM0.345703 193.9V192.9H-0.654297V193.9H0.345703ZM0.345703 195H-0.654297V196H0.345703V195ZM127.286 195V196H128.084L128.261 195.222L127.286 195ZM141.146 134.06L142.121 134.282L142.399 133.06H141.146V134.06ZM139.071 133.837C133.494 158.223 124.343 172.729 113.495 181.262C102.646 189.796 89.9621 192.464 77.0918 192.901L77.1596 194.899C90.2493 194.456 103.416 191.734 114.731 182.833C126.049 173.931 135.378 158.957 141.021 134.283L139.071 133.837ZM77.1257 192.9H49.4057V194.9H77.1257V192.9ZM49.4057 192.9C44.8739 192.9 41.9648 192.432 40.1117 190.672C38.2638 188.918 37.2057 185.619 37.2057 179.16H35.2057C35.2057 185.681 36.2376 189.752 38.7347 192.123C41.2266 194.488 44.9175 194.9 49.4057 194.9V192.9ZM37.2057 179.16V101.28H35.2057V179.16H37.2057ZM36.2057 102.28H74.4857V100.28H36.2057V102.28ZM74.4084 102.277C87.1054 103.262 94.5828 105.983 99.0678 111.972C103.612 118.039 105.276 127.685 105.606 143.101L107.605 143.059C107.276 127.675 105.64 117.411 100.669 110.773C95.6386 104.057 87.386 101.278 74.563 100.283L74.4084 102.277ZM106.606 144.08H107.706V142.08H106.606V144.08ZM108.706 143.07L108.266 100.83L106.266 100.85L106.706 143.09L108.706 143.07ZM108.266 100.835L108.046 58.5948L106.046 58.6052L106.266 100.845L108.266 100.835ZM107.046 57.6H105.946V59.6H107.046V57.6ZM104.946 58.6C104.946 74.2273 103.05 84.2184 96.7225 90.3891C90.3807 96.5737 79.3222 99.18 60.1857 99.18V101.18C79.3292 101.18 91.1507 98.6163 98.1189 91.8209C105.101 85.0116 106.946 74.2127 106.946 58.6H104.946ZM60.1857 99.18H36.2057V101.18H60.1857V99.18ZM37.2057 100.18V22.74H35.2057V100.18H37.2057ZM37.2056 22.7564C37.3138 16.1518 38.8302 12.9049 40.9501 11.2326C43.1215 9.51957 46.1922 9.21999 50.0657 9.21999V7.21999C46.2393 7.21999 42.4899 7.47041 39.7113 9.66238C36.8812 11.8951 35.3176 15.9082 35.2058 22.7236L37.2056 22.7564ZM50.0657 9.21999H82.1857V7.21999H50.0657V9.21999ZM82.1857 9.21999C95.7825 9.21999 106.4 15.6763 114.612 26.4005C122.848 37.1559 128.636 52.178 132.47 69.1603L134.421 68.7197C130.556 51.602 124.684 36.2641 116.2 25.1845C107.692 14.0737 96.5289 7.21999 82.1857 7.21999V9.21999ZM133.446 69.94H134.546V67.94H133.446V69.94ZM135.521 68.7212L121.661 6.90122L119.71 7.33876L133.57 69.1588L135.521 68.7212ZM120.686 6.11999H0.345703V8.11999H120.686V6.11999ZM-0.654297 7.11999V8.21999H1.3457V7.11999H-0.654297ZM0.345703 9.21999C4.21924 9.21999 7.28992 9.51957 9.46133 11.2326C11.5812 12.9049 13.0976 16.1518 13.2058 22.7564L15.2056 22.7236C15.0938 15.9082 13.5302 11.8951 10.7001 9.66238C7.92151 7.47041 4.17215 7.21999 0.345703 7.21999V9.21999ZM13.2057 22.74V179.16H15.2057V22.74H13.2057ZM13.2057 179.16C13.2057 185.738 12.1438 189.016 10.2357 190.738C8.30396 192.481 5.23279 192.9 0.345703 192.9V194.9C5.13861 194.9 8.99744 194.549 11.5757 192.222C14.1776 189.874 15.2057 185.782 15.2057 179.16H13.2057ZM-0.654297 193.9V195H1.3457V193.9H-0.654297ZM0.345703 196H127.286V194H0.345703V196ZM128.261 195.222L142.121 134.282L140.171 133.838L126.311 194.778L128.261 195.222ZM141.146 133.06H140.046V135.06H141.146V133.06ZM247.844 0.519986H248.844V-0.97224L247.464 -0.404927L247.844 0.519986ZM211.984 15.26L211.604 14.3351L210.984 14.5899V15.26H211.984ZM211.984 16.36H210.984V17.8415L212.358 17.2874L211.984 16.36ZM225.844 23.18H226.844V23.1702L226.844 23.1604L225.844 23.18ZM225.844 79.5L225.509 80.4422L226.844 80.9169V79.5H225.844ZM193.724 77.3L193.931 78.2783L193.935 78.2775L193.724 77.3ZM148.404 148.8L147.426 149.006L147.426 149.01L148.404 148.8ZM213.744 196.1L213.565 195.116L213.551 195.119L213.536 195.122L213.744 196.1ZM225.844 191.7H226.844V190.033L225.373 190.818L225.844 191.7ZM225.844 195H224.844V196H225.844V195ZM261.704 195V196H262.704V195H261.704ZM261.704 193.9H262.704V192.9H261.704V193.9ZM215.284 193.68L215.383 194.675L215.389 194.674L215.284 193.68ZM198.124 77.96L198.333 78.938L198.333 78.9378L198.124 77.96ZM225.844 81.92H226.844V81.309L226.3 81.0302L225.844 81.92ZM225.844 190.38L226.318 191.26L226.844 190.977V190.38H225.844ZM247.464 -0.404927L211.604 14.3351L212.364 16.1849L248.224 1.4449L247.464 -0.404927ZM210.984 15.26V16.36H212.984V15.26H210.984ZM212.358 17.2874C215.774 15.9098 218.274 14.9721 220.122 14.4959C222.027 14.0053 222.957 14.0865 223.45 14.3682C223.89 14.6194 224.279 15.2135 224.515 16.7588C224.747 18.2722 224.789 20.3645 224.844 23.1996L226.844 23.1604C226.789 20.3855 226.749 18.1328 226.492 16.4562C226.24 14.8114 225.736 13.3706 224.443 12.6318C223.203 11.9234 221.562 12.0597 219.624 12.5591C217.629 13.0729 215.014 14.0602 211.61 15.4326L212.358 17.2874ZM224.844 23.18V79.5H226.844V23.18H224.844ZM226.179 78.5578C216.12 74.9811 204.93 73.8599 193.513 76.3225L193.935 78.2775C204.957 75.9001 215.768 76.9789 225.509 80.4422L226.179 78.5578ZM193.517 76.3217C159.716 83.4847 140.5 116.168 147.426 149.006L149.382 148.594C142.668 116.752 161.292 85.1953 193.931 78.2783L193.517 76.3217ZM147.426 149.01C154.565 182.252 185.398 203.149 213.952 197.078L213.536 195.122C186.21 200.931 156.323 180.908 149.382 148.59L147.426 149.01ZM213.923 197.084C218.902 196.179 222.964 194.369 226.315 192.582L225.373 190.818C222.124 192.551 218.266 194.261 213.565 195.116L213.923 197.084ZM224.844 191.7V195H226.844V191.7H224.844ZM225.844 196H261.704V194H225.844V196ZM262.704 195V193.9H260.704V195H262.704ZM261.704 192.9C257.296 192.9 254.188 192.437 252.131 190.644C250.106 188.877 248.844 185.575 248.844 179.16H246.844C246.844 185.725 248.112 189.793 250.817 192.151C253.49 194.483 257.312 194.9 261.704 194.9V192.9ZM248.844 179.16V0.519986H246.844V179.16H248.844ZM215.185 192.685C204.083 193.795 194.249 188.093 186.496 178.497C178.741 168.899 173.166 155.507 170.646 141.582C168.124 127.654 168.677 113.3 173.061 101.78C177.432 90.2924 185.586 81.658 198.333 78.938L197.915 76.982C184.372 79.872 175.751 89.0851 171.192 101.069C166.644 113.02 166.111 127.761 168.677 141.938C171.244 156.118 176.931 169.841 184.94 179.754C192.951 189.669 203.385 195.875 215.383 194.675L215.185 192.685ZM198.333 78.9378C207.329 77.0101 216.995 78.5059 225.388 82.8098L226.3 81.0302C217.533 76.534 207.399 74.9499 197.914 76.9822L198.333 78.9378ZM224.844 81.92V190.38H226.844V81.92H224.844ZM225.37 189.5C222.602 190.99 219.207 192.262 215.179 192.686L215.389 194.674C219.721 194.218 223.366 192.85 226.318 191.26L225.37 189.5ZM260.521 195H259.521V196H260.521V195ZM260.521 193.9V192.9H259.521V193.9H260.521ZM274.381 98.86H275.381V98.8502L275.381 98.8404L274.381 98.86ZM260.521 92.04H259.521V93.5215L260.895 92.9674L260.521 92.04ZM260.521 90.94L260.141 90.0151L259.521 90.2699V90.94H260.521ZM296.381 76.2H297.381V74.7078L296.001 75.2751L296.381 76.2ZM310.242 193.9H311.242V192.9H310.242V193.9ZM310.242 195V196H311.242V195H310.242ZM271.422 52.22C271.422 44.6421 277.564 38.7 284.941 38.7V36.7C276.479 36.7 269.422 43.5179 269.422 52.22H271.422ZM284.941 38.7C292.529 38.7 298.461 44.6323 298.461 52.22H300.461C300.461 43.5277 293.634 36.7 284.941 36.7V38.7ZM298.461 52.22C298.461 59.5976 292.519 65.74 284.941 65.74V67.74C293.644 67.74 300.461 60.6824 300.461 52.22H298.461ZM284.941 65.74C277.574 65.74 271.422 59.5877 271.422 52.22H269.422C269.422 60.6923 276.469 67.74 284.941 67.74V65.74ZM261.521 195V193.9H259.521V195H261.521ZM260.521 194.9C264.914 194.9 268.735 194.483 271.409 192.151C274.113 189.793 275.381 185.725 275.381 179.16H273.381C273.381 185.575 272.12 188.877 270.094 190.644C268.038 192.437 264.929 192.9 260.521 192.9V194.9ZM275.381 179.16V98.86H273.381V179.16H275.381ZM275.381 98.8404C275.327 96.0655 275.286 93.8128 275.03 92.1362C274.778 90.4914 274.273 89.0506 272.98 88.3118C271.741 87.6034 270.1 87.7397 268.161 88.2391C266.167 88.7529 263.551 89.7402 260.148 91.1126L260.895 92.9674C264.312 91.5898 266.811 90.6521 268.66 90.1759C270.565 89.6853 271.495 89.7665 271.988 90.0482C272.427 90.2994 272.816 90.8935 273.053 92.4388C273.284 93.9522 273.326 96.0445 273.382 98.8796L275.381 98.8404ZM261.521 92.04V90.94H259.521V92.04H261.521ZM260.902 91.8649L296.762 77.1249L296.001 75.2751L260.141 90.0151L260.902 91.8649ZM295.381 76.2V179.16H297.381V76.2H295.381ZM295.381 179.16C295.381 185.725 296.65 189.793 299.354 192.151C302.028 194.483 305.849 194.9 310.242 194.9V192.9C305.834 192.9 302.725 192.437 300.669 190.644C298.643 188.877 297.381 185.575 297.381 179.16H295.381ZM309.242 193.9V195H311.242V193.9H309.242ZM310.242 194H260.521V196H310.242V194ZM363.98 171.02L364.78 170.42L364.013 169.397L363.205 170.388L363.98 171.02ZM336.48 77.3V76.3H335.48V77.3H336.48ZM352.1 77.3V78.3H353.1V77.3H352.1ZM352.1 76.2H353.1V75.2H352.1V76.2ZM336.48 76.2H335.48V77.2H336.48V76.2ZM336.48 41H337.48V39.4815L336.085 40.0813L336.48 41ZM314.48 50.46L314.085 49.5413L313.48 49.8015V50.46H314.48ZM314.48 76.2V77.2H315.48V76.2H314.48ZM303.92 76.2V75.2H302.92V76.2H303.92ZM303.92 77.3H302.92V78.3H303.92V77.3ZM314.48 77.3H315.48V76.3H314.48V77.3ZM364.64 171.9L365.412 172.536L365.912 171.929L365.44 171.3L364.64 171.9ZM363.205 170.388C355.455 179.896 349.971 184.877 346.141 186.836C344.24 187.808 342.876 187.969 341.896 187.717C340.94 187.471 340.14 186.776 339.475 185.556C338.804 184.324 338.32 182.639 337.989 180.605C337.66 178.581 337.491 176.274 337.414 173.835C337.26 168.925 337.48 163.662 337.48 159.14H335.48C335.48 163.528 335.26 168.963 335.415 173.898C335.493 176.381 335.666 178.783 336.015 180.926C336.362 183.058 336.892 184.996 337.719 186.514C338.553 188.044 339.737 189.226 341.398 189.654C343.034 190.075 344.921 189.707 347.052 188.617C351.286 186.451 356.994 181.174 364.755 171.652L363.205 170.388ZM337.48 159.14V77.3H335.48V159.14H337.48ZM336.48 78.3H352.1V76.3H336.48V78.3ZM353.1 77.3V76.2H351.1V77.3H353.1ZM352.1 75.2H336.48V77.2H352.1V75.2ZM337.48 76.2V41H335.48V76.2H337.48ZM336.085 40.0813L314.085 49.5413L314.875 51.3787L336.875 41.9187L336.085 40.0813ZM313.48 50.46V76.2H315.48V50.46H313.48ZM314.48 75.2H303.92V77.2H314.48V75.2ZM302.92 76.2V77.3H304.92V76.2H302.92ZM303.92 78.3H314.48V76.3H303.92V78.3ZM313.48 77.3V158.04H315.48V77.3H313.48ZM313.48 158.04C313.48 166.886 314.239 175.134 315.998 181.807C317.748 188.443 320.538 193.719 324.759 196.344C329.073 199.027 334.566 198.765 341.233 195.048C347.881 191.342 355.867 184.122 365.412 172.536L363.868 171.264C354.383 182.778 346.584 189.775 340.259 193.302C333.953 196.817 329.284 196.803 325.816 194.646C322.255 192.431 319.641 187.78 317.932 181.298C316.233 174.853 315.48 166.794 315.48 158.04H313.48ZM365.44 171.3L364.78 170.42L363.18 171.62L363.84 172.5L365.44 171.3ZM425.913 194.78L425.688 193.806L425.685 193.806L425.913 194.78ZM400.833 78.4L400.628 77.4213L400.622 77.4227L400.833 78.4ZM400.833 77.3L400.631 76.3207L400.626 76.3217L400.833 77.3ZM471.233 124.16L472.211 123.951L472.211 123.95L471.233 124.16ZM425.913 195.88L425.711 194.901L425.705 194.902L425.913 195.88ZM355.513 148.8L354.535 149.006L354.536 149.01L355.513 148.8ZM426.138 195.754C438.749 192.844 446.479 183.179 450.239 170.728C453.993 158.295 453.838 142.97 450.65 128.374C447.462 113.779 441.215 99.7969 432.666 90.0768C424.106 80.344 413.137 74.7939 400.628 77.4213L401.039 79.3786C412.62 76.9461 422.908 82.011 431.164 91.3976C439.431 100.797 445.559 114.439 448.696 128.801C451.833 143.163 451.954 158.129 448.324 170.15C444.7 182.153 437.388 191.106 425.688 193.806L426.138 195.754ZM400.622 77.4227C388.212 80.1104 380.553 89.7643 376.786 102.267C373.023 114.757 373.087 130.231 376.177 144.963C379.267 159.694 385.41 173.803 393.924 183.534C402.455 193.284 413.463 198.723 426.141 195.754L425.685 193.806C413.944 196.557 403.64 191.601 395.429 182.217C387.203 172.816 381.177 159.054 378.135 144.552C375.093 130.052 375.06 114.931 378.701 102.844C382.339 90.7682 389.584 81.8596 401.045 79.3773L400.622 77.4227ZM401.036 78.2793C433.472 71.5759 463.325 92.1005 470.256 124.37L472.211 123.95C465.061 90.6595 434.195 69.3841 400.631 76.3207L401.036 78.2793ZM470.255 124.369C476.967 155.763 457.031 188.421 425.711 194.901L426.116 196.859C458.595 190.139 479.139 156.357 472.211 123.951L470.255 124.369ZM425.705 194.902C393.284 201.818 363.424 180.872 356.491 148.59L354.536 149.01C361.683 182.288 392.542 204.022 426.122 196.858L425.705 194.902ZM356.492 148.594C349.777 116.752 368.401 85.1953 401.041 78.2783L400.626 76.3217C366.826 83.4847 347.61 116.168 354.535 149.006L356.492 148.594ZM502.202 76.2H503.202V74.6822L501.807 75.2811L502.202 76.2ZM466.342 91.6L465.947 90.6811L465.342 90.9411V91.6H466.342ZM466.342 92.7H465.342V94.0539L466.636 93.6558L466.342 92.7ZM466.342 193.9V192.9H465.342V193.9H466.342ZM466.342 195H465.342V196H466.342V195ZM516.062 195V196H517.062V195H516.062ZM516.062 193.9H517.062V192.9H516.062V193.9ZM502.202 98.64L501.247 98.3423L501.202 98.4877V98.64H502.202ZM539.822 107L538.841 106.806L538.605 108H539.822V107ZM540.262 107V108H540.92L541.181 107.395L540.262 107ZM551.702 80.38L552.621 80.7748L552.907 80.1094L552.363 79.6302L551.702 80.38ZM502.202 91.16H501.202V93.3342L502.853 91.9193L502.202 91.16ZM501.807 75.2811L465.947 90.6811L466.736 92.5188L502.596 77.1189L501.807 75.2811ZM465.342 91.6V92.7H467.342V91.6H465.342ZM466.636 93.6558C468.11 93.2023 470.076 92.3393 471.846 91.6523C473.716 90.9265 475.359 90.4 476.462 90.4V88.4C474.925 88.4 472.937 89.0835 471.122 89.7877C469.208 90.5307 467.434 91.3177 466.048 91.7442L466.636 93.6558ZM476.462 90.4C477.113 90.4 477.55 90.5959 477.873 90.8785C478.217 91.1786 478.496 91.6335 478.709 92.2353C479.141 93.4603 479.202 95.0103 479.202 96.22H481.202C481.202 95.0097 481.152 93.1497 480.595 91.5697C480.312 90.769 479.877 89.9727 479.189 89.3721C478.481 88.7541 477.57 88.4 476.462 88.4V90.4ZM479.202 96.22V179.16H481.202V96.22H479.202ZM479.202 179.16C479.202 185.787 477.834 189.079 475.768 190.793C473.658 192.544 470.548 192.9 466.342 192.9V194.9C470.496 194.9 474.316 194.596 477.045 192.332C479.819 190.031 481.202 185.953 481.202 179.16H479.202ZM465.342 193.9V195H467.342V193.9H465.342ZM466.342 196H516.062V194H466.342V196ZM517.062 195V193.9H515.062V195H517.062ZM516.062 192.9C511.654 192.9 508.546 192.437 506.489 190.644C504.463 188.877 503.202 185.575 503.202 179.16H501.202C501.202 185.725 502.47 189.793 505.175 192.151C507.848 194.483 511.67 194.9 516.062 194.9V192.9ZM503.202 179.16V98.64H501.202V179.16H503.202ZM503.156 98.9377C504.674 94.0705 508.149 89.7676 512.442 86.6477C516.738 83.5257 521.77 81.6492 526.315 81.5447C530.832 81.4409 534.806 83.0769 537.245 86.9242C539.716 90.8226 540.742 97.1896 538.841 106.806L540.803 107.194C542.751 97.3404 541.797 90.3699 538.934 85.8533C536.038 81.2856 531.321 79.4291 526.269 79.5453C521.243 79.6608 515.825 81.7168 511.266 85.0298C506.705 88.3449 502.919 92.9795 501.247 98.3423L503.156 98.9377ZM539.822 108H540.262V106H539.822V108ZM541.181 107.395L552.621 80.7748L550.783 79.9852L539.343 106.605L541.181 107.395ZM552.363 79.6302C546.366 74.3387 537.02 74.1634 527.686 76.6358C518.295 79.1232 508.591 84.3662 501.551 90.4007L502.853 91.9193C509.672 86.0737 519.108 80.9768 528.198 78.5692C537.344 76.1466 545.817 76.5213 551.04 81.1298L552.363 79.6302ZM503.202 91.16V76.2H501.202V91.16H503.202ZM551.635 195H550.635V196H551.635V195ZM551.635 193.9V192.9H550.635V193.9H551.635ZM565.495 98.86H566.495V98.8502L566.495 98.8404L565.495 98.86ZM551.635 92.04H550.635V93.5215L552.009 92.9674L551.635 92.04ZM551.635 90.94L551.255 90.0151L550.635 90.2699V90.94H551.635ZM587.495 76.2H588.495V74.7078L587.115 75.2751L587.495 76.2ZM601.355 193.9H602.355V192.9H601.355V193.9ZM601.355 195V196H602.355V195H601.355ZM562.535 52.22C562.535 44.6421 568.677 38.7 576.055 38.7V36.7C567.592 36.7 560.535 43.5179 560.535 52.22H562.535ZM576.055 38.7C583.642 38.7 589.575 44.6323 589.575 52.22H591.575C591.575 43.5277 584.747 36.7 576.055 36.7V38.7ZM589.575 52.22C589.575 59.5976 583.633 65.74 576.055 65.74V67.74C584.757 67.74 591.575 60.6824 591.575 52.22H589.575ZM576.055 65.74C568.687 65.74 562.535 59.5877 562.535 52.22H560.535C560.535 60.6923 567.582 67.74 576.055 67.74V65.74ZM552.635 195V193.9H550.635V195H552.635ZM551.635 194.9C556.027 194.9 559.849 194.483 562.522 192.151C565.226 189.793 566.495 185.725 566.495 179.16H564.495C564.495 185.575 563.233 188.877 561.208 190.644C559.151 192.437 556.043 192.9 551.635 192.9V194.9ZM566.495 179.16V98.86H564.495V179.16H566.495ZM566.495 98.8404C566.44 96.0655 566.399 93.8128 566.143 92.1362C565.891 90.4914 565.386 89.0506 564.093 88.3118C562.854 87.6034 561.213 87.7397 559.274 88.2391C557.28 88.7529 554.664 89.7402 551.261 91.1126L552.009 92.9674C555.425 91.5898 557.925 90.6521 559.773 90.1759C561.678 89.6853 562.608 89.7665 563.101 90.0482C563.541 90.2994 563.93 90.8935 564.166 92.4388C564.398 93.9522 564.439 96.0445 564.495 98.8796L566.495 98.8404ZM552.635 92.04V90.94H550.635V92.04H552.635ZM552.015 91.8649L587.875 77.1249L587.115 75.2751L551.255 90.0151L552.015 91.8649ZM586.495 76.2V179.16H588.495V76.2H586.495ZM586.495 179.16C586.495 185.725 587.763 189.793 590.468 192.151C593.141 194.483 596.963 194.9 601.355 194.9V192.9C596.947 192.9 593.839 192.437 591.782 190.644C589.756 188.877 588.495 185.575 588.495 179.16H586.495ZM600.355 193.9V195H602.355V193.9H600.355ZM601.355 194H551.635V196H601.355V194ZM703.144 167.06V166.06H702.428L702.197 166.739L703.144 167.06ZM694.344 113.82H695.344L695.344 113.816L694.344 113.82ZM606.784 110.52L605.796 110.365L605.683 111.087L606.337 111.414L606.784 110.52ZM631.864 123.06L631.417 123.954L634.55 125.521L632.716 122.536L631.864 123.06ZM671.904 100.62L672.903 100.67L672.905 100.636L672.904 100.601L671.904 100.62ZM636.924 128.34L637.296 129.268L637.297 129.268L636.924 128.34ZM641.764 196.98L641.877 197.974L641.884 197.973L641.764 196.98ZM671.464 174.98L672.464 174.961L670.532 174.618L671.464 174.98ZM704.244 167.06L705.208 167.328L705.561 166.06H704.244V167.06ZM653.204 192.58L653.502 193.535L653.509 193.532L653.204 192.58ZM636.044 130.1L635.674 129.171L635.673 129.172L636.044 130.1ZM702.197 166.739C700.108 172.896 698.532 176.935 697.349 179.284C696.747 180.48 696.296 181.135 695.995 181.424C695.843 181.569 695.828 181.525 695.942 181.507C696.125 181.479 696.267 181.567 696.308 181.607C696.313 181.612 696.249 181.544 696.158 181.305C696.072 181.081 695.986 180.768 695.906 180.358C695.745 179.538 695.627 178.428 695.542 177.053C695.372 174.308 695.344 170.64 695.344 166.4H693.344C693.344 170.63 693.371 174.36 693.546 177.176C693.632 178.583 693.758 179.794 693.943 180.742C694.036 181.216 694.148 181.649 694.289 182.019C694.425 182.375 694.617 182.751 694.911 183.038C695.24 183.359 695.704 183.567 696.245 183.484C696.717 183.412 697.095 183.139 697.378 182.868C697.944 182.326 698.521 181.404 699.136 180.184C700.386 177.7 702 173.544 704.091 167.381L702.197 166.739ZM695.344 166.4V113.82H693.344V166.4H695.344ZM695.344 113.816C695.288 100.334 690.092 90.5262 682.155 84.1549C674.247 77.8064 663.704 74.9359 653.022 75.1176C631.738 75.4798 609.311 88.0323 605.796 110.365L607.772 110.675C611.078 89.6677 632.321 77.4702 653.056 77.1173C663.385 76.9416 673.439 79.7224 680.903 85.7145C688.339 91.6838 693.291 100.906 693.344 113.824L695.344 113.816ZM606.337 111.414L631.417 123.954L632.312 122.166L607.232 109.626L606.337 111.414ZM632.716 122.536C624.819 109.683 623.436 99.8811 625.527 92.9583C627.61 86.0637 633.22 81.7649 639.921 80.0565C646.638 78.3441 654.344 79.2721 660.385 82.7489C666.39 86.2054 670.747 92.1708 670.904 100.639L672.904 100.601C672.732 91.3591 667.931 84.7846 661.383 81.0155C654.869 77.2667 646.625 76.2834 639.427 78.1185C632.214 79.9576 625.943 84.665 623.613 92.3799C621.29 100.066 622.959 110.477 631.012 123.583L632.716 122.536ZM670.906 100.57C670.808 102.512 669.94 104.652 668.289 106.933C666.642 109.209 664.256 111.571 661.224 113.939C655.159 118.677 646.615 123.365 636.551 127.412L637.297 129.268C647.474 125.175 656.199 120.403 662.455 115.516C665.583 113.072 668.119 110.58 669.909 108.105C671.697 105.635 672.78 103.128 672.903 100.67L670.906 100.57ZM636.552 127.412C608.054 138.833 597.165 157.661 599.748 173.3C602.334 188.964 618.304 200.655 641.877 197.974L641.651 195.986C618.804 198.585 604.084 187.286 601.721 172.975C599.354 158.639 609.255 140.507 637.296 129.268L636.552 127.412ZM641.884 197.973C651.164 196.855 657.739 193.991 662.537 189.963C667.33 185.941 670.271 180.824 672.397 175.342L670.532 174.618C668.478 179.916 665.698 184.699 661.251 188.432C656.81 192.159 650.624 194.905 641.645 195.987L641.884 197.973ZM670.464 174.999C670.631 183.6 672.168 189.763 674.668 193.566C675.927 195.481 677.451 196.827 679.191 197.548C680.938 198.272 682.824 198.333 684.737 197.807C688.518 196.767 692.422 193.444 695.955 188.325C699.506 183.178 702.765 176.1 705.208 167.328L703.281 166.792C700.884 175.4 697.707 182.264 694.308 187.189C690.89 192.142 687.328 195.02 684.207 195.878C682.668 196.301 681.244 196.234 679.957 195.701C678.663 195.165 677.428 194.124 676.339 192.467C674.143 189.127 672.628 183.41 672.464 174.961L670.464 174.999ZM704.244 166.06H703.144V168.06H704.244V166.06ZM652.906 191.625C645.512 193.933 639.126 192.059 634.063 187.749C628.963 183.406 625.192 176.569 623.235 169.009C621.279 161.455 621.161 153.284 623.255 146.339C625.344 139.408 629.611 133.75 636.416 131.028L635.673 129.172C628.177 132.17 623.562 138.392 621.34 145.761C619.123 153.116 619.267 161.665 621.299 169.511C623.329 177.351 627.272 184.594 632.766 189.271C638.298 193.981 645.387 196.067 653.502 193.535L652.906 191.625ZM636.415 131.029C672.366 116.692 673.344 105.01 673.344 103.48H671.344C671.344 103.71 671.443 114.908 635.674 129.171L636.415 131.029ZM671.344 103.48V160.02H673.344V103.48H671.344ZM671.344 160.02C671.344 178.18 663.386 188.272 652.9 191.628L653.509 193.532C665.023 189.848 673.344 178.82 673.344 160.02H671.344ZM732.299 0.519986H733.299V-0.97224L731.919 -0.404927L732.299 0.519986ZM696.439 15.26L696.059 14.3351L695.439 14.5899V15.26H696.439ZM696.439 16.36H695.439V17.8415L696.813 17.2874L696.439 16.36ZM710.299 23.18H711.299V23.1702L711.299 23.1604L710.299 23.18ZM696.439 193.9V192.9H695.439V193.9H696.439ZM696.439 195H695.439V196H696.439V195ZM746.159 195V196H747.159V195H746.159ZM746.159 193.9H747.159V192.9H746.159V193.9ZM733.299 179.16V0.519986H731.299V179.16H733.299ZM731.919 -0.404927L696.059 14.3351L696.82 16.1849L732.68 1.4449L731.919 -0.404927ZM695.439 15.26V16.36H697.439V15.26H695.439ZM696.813 17.2874C700.23 15.9098 702.729 14.9721 704.578 14.4959C706.483 14.0053 707.413 14.0865 707.906 14.3682C708.345 14.6194 708.734 15.2135 708.971 16.7588C709.202 18.2722 709.244 20.3645 709.3 23.1996L711.299 23.1604C711.245 20.3855 711.204 18.1328 710.948 16.4562C710.696 14.8114 710.191 13.3706 708.898 12.6318C707.659 11.9234 706.018 12.0597 704.079 12.5591C702.085 13.0729 699.469 14.0602 696.065 15.4326L696.813 17.2874ZM709.299 23.18V179.16H711.299V23.18H709.299ZM709.299 179.16C709.299 185.575 708.038 188.877 706.012 190.644C703.956 192.437 700.847 192.9 696.439 192.9V194.9C700.832 194.9 704.653 194.483 707.327 192.151C710.031 189.793 711.299 185.725 711.299 179.16H709.299ZM695.439 193.9V195H697.439V193.9H695.439ZM696.439 196H746.159V194H696.439V196ZM747.159 195V193.9H745.159V195H747.159ZM746.159 192.9C741.752 192.9 738.643 192.437 736.587 190.644C734.561 188.877 733.299 185.575 733.299 179.16H731.299C731.299 185.725 732.568 189.793 735.272 192.151C737.946 194.483 741.767 194.9 746.159 194.9V192.9Z" fill="#CCC"/>
</svg>
